# xmcd
#
# Track frame offsets:
#  150
#  21351
#  45247
#  68820
#  88434
#  104026
#  124391
#  145860
#  171282
#  195578
#  213223
#  228970
#  246108
#  261640
#  282359
#  304535
#
# Disc length: 4373 seconds
#
# Revision: 0
# Processed by: cddbd v1.4PL0 Copyright (c) Steve Scherf et al.
# Submitted via: AltoMP3_Maker 3.0
#
DISCID=f0111310
DTITLE=周杰伦等 - 流星雨（1）
DYEAR=1900
DGENRE=
TTITLE0=流星雨
TTITLE1=地下铁
TTITLE2=色盲
TTITLE3=我不是天使
TTITLE4=爱一个人原来不容易
TTITLE5=第一次
TTITLE6=烫心
TTITLE7=Let  me  go
TTITLE8=旅程
TTITLE9=Chocolate  boy
TTITLE10=终身美丽
TTITLE11=Parapara  sakala
TTITLE12=女校男生
TTITLE13=疼你的责任
TTITLE14=情深深
TTITLE15=阳光总在风雨后
EXTD=
EXTT0=
EXTT1=
EXTT2=
EXTT3=
EXTT4=
EXTT5=
EXTT6=
EXTT7=
EXTT8=
EXTT9=
EXTT10=
EXTT11=
EXTT12=
EXTT13=
EXTT14=
EXTT15=
PLAYORDER=
